<?xml version="1.0" encoding="utf-8"?>
<!-- Generator: Adobe Illustrator 24.1.1, SVG Export Plug-In . SVG Version: 6.00 Build 0)  -->
<svg version="1.1" id="Capa_1" xmlns="http://www.w3.org/2000/svg" xmlns:xlink="http://www.w3.org/1999/xlink" x="0px" y="0px"
	 viewBox="0 0 180 180" style="enable-background:new 0 0 180 180;" xml:space="preserve">
<style type="text/css">
	.st0{fill:#FFFFFF;}
	.st1{fill:#FFFACC;stroke:#000000;stroke-miterlimit:10;}
	.st2{fill:#13131A;}
	.st3{fill:#FFFACC;}
	.st4{fill:none;}
	.st5{font-family:'IslandNamina';}
	.st6{font-size:23px;}
	.st7{font-size:24px;}
	.st8{fill:none;stroke:#000000;stroke-width:0.75;stroke-miterlimit:10;}
</style>
<path class="st0" d="M70,121c0-20.66,0-41.33,0-62c20.67,0,41.33,0,62,0c0,20.66,0,41.32,0,62C111.33,121,90.66,121,70,121z
	 M83.68,75.44c0.03,0.52,0.06,0.96,0.08,1.4c0.26,5.9,0.51,11.8,0.77,17.69c0.34,7.69,0.7,15.38,1.04,23.07
	c0.05,1.12,0.3,1.37,1.42,1.37c7.21,0,14.42,0,21.63,0c2.26,0,4.51,0,6.77,0c0.73,0,1.1-0.34,1.13-1.04
	c0.32-7.12,0.64-14.25,0.96-21.38c0.26-5.86,0.51-11.71,0.77-17.57c0.05-1.16,0.11-2.33,0.17-3.54c0.65,0,1.25,0.01,1.85,0
	c0.69-0.01,1.06-0.37,1.07-1.04c0.01-1.57,0.02-3.14,0-4.72c-0.01-0.64-0.39-0.99-1.03-1.01c-0.36-0.01-0.72,0-1.09,0
	c-0.06-0.23-0.12-0.42-0.17-0.62c-0.52-2.07-1.04-4.14-1.56-6.2c-0.17-0.68-0.46-0.92-1.14-0.92c-3.42,0-6.85-0.02-10.27,0.02
	c-0.36,0-0.78,0.21-1.05,0.45c-0.72,0.64-1.39,1.34-2.05,2.05c-0.27,0.29-0.56,0.39-0.95,0.39c-5.7-0.01-11.4-0.01-17.1-0.01
	c-0.89,0-1.13,0.2-1.31,1.07c-0.26,1.24-0.51,2.48-0.77,3.77c-0.3,0-0.58,0-0.86,0c-0.91,0.01-1.24,0.33-1.24,1.24
	c0,1.47-0.01,2.94,0,4.41c0,0.75,0.36,1.11,1.11,1.12C82.45,75.45,83.03,75.44,83.68,75.44z"/>
<circle class="st1" cx="90.5" cy="90.5" r="88"/>
<g>
	<path d="M83.68,75.44c-0.65,0-1.23,0.01-1.81,0c-0.75-0.01-1.11-0.37-1.11-1.12c-0.01-1.47-0.01-2.94,0-4.41
		c0-0.91,0.33-1.23,1.24-1.24c0.28,0,0.56,0,0.86,0c0.26-1.29,0.51-2.53,0.77-3.77c0.18-0.87,0.43-1.07,1.31-1.07
		c5.7,0,11.4,0,17.1,0.01c0.39,0,0.68-0.1,0.95-0.39c0.66-0.7,1.33-1.41,2.05-2.05c0.27-0.24,0.7-0.45,1.05-0.45
		c3.42-0.03,6.85-0.02,10.27-0.02c0.68,0,0.97,0.23,1.14,0.92c0.52,2.07,1.04,4.14,1.56,6.2c0.05,0.19,0.11,0.38,0.17,0.62
		c0.37,0,0.73-0.01,1.09,0c0.65,0.02,1.03,0.37,1.03,1.01c0.02,1.57,0.02,3.14,0,4.72c-0.01,0.67-0.39,1.02-1.07,1.04
		c-0.6,0.01-1.2,0-1.85,0c-0.06,1.21-0.12,2.37-0.17,3.54c-0.26,5.86-0.51,11.71-0.77,17.57c-0.32,7.13-0.64,14.25-0.96,21.38
		c-0.03,0.7-0.4,1.04-1.13,1.04c-2.26,0.01-4.51,0-6.77,0c-7.21,0-14.42,0-21.63,0c-1.12,0-1.37-0.25-1.42-1.37
		c-0.34-7.69-0.7-15.38-1.04-23.07c-0.26-5.9-0.51-11.8-0.77-17.69C83.74,76.4,83.71,75.96,83.68,75.44z M115.93,88.02
		c-2,0-3.91-0.01-5.81,0.01c-0.53,0.01-0.92-0.16-1.23-0.6c-3.92-5.37-11.82-5.31-15.67,0.03c-0.3,0.42-0.68,0.57-1.19,0.57
		c-1.67-0.02-3.34-0.01-5.01-0.01c-0.26,0-0.51,0-0.83,0c0.16,3.57,0.32,7.08,0.48,10.64c1.89,0,3.72,0.02,5.55-0.01
		c0.65-0.01,1.08,0.21,1.5,0.7c1.9,2.22,4.33,3.38,7.24,3.41c3.03,0.03,5.55-1.16,7.51-3.48c0.37-0.44,0.77-0.64,1.35-0.63
		c1.17,0.03,2.34,0.01,3.5,0.01c0.7,0,1.4,0,2.13,0C115.61,95.09,115.77,91.59,115.93,88.02z M87.48,117.01c9.07,0,18.09,0,27.15,0
		c0.24-5.47,0.49-10.91,0.73-16.42c-1.66,0-3.25,0.01-4.83-0.01c-0.44-0.01-0.73,0.12-1.04,0.45c-4.42,4.69-11.78,4.94-16.36,0.49
		c-0.74-0.71-1.43-1-2.41-0.95c-1.3,0.07-2.6,0.02-3.98,0.02C87,106.1,87.24,111.55,87.48,117.01z M116.48,75.48
		c-10.32,0-20.57,0-30.84,0c0.16,3.55,0.31,7.06,0.46,10.6c1.8,0,3.51-0.01,5.22,0.01c0.36,0,0.58-0.11,0.81-0.39
		c4.27-5.21,12.25-5.69,16.97-0.9c0.99,1.01,1.93,1.41,3.27,1.3c1.19-0.1,2.4-0.02,3.64-0.02
		C116.17,82.51,116.32,79.02,116.48,75.48z M84.85,68.63c10.8,0,21.56,0,32.37,0c-0.49-1.95-0.96-3.85-1.44-5.77
		c-3.12,0-6.17,0-9.23,0.01c-0.17,0-0.37,0.13-0.5,0.26c-0.64,0.62-1.28,1.22-1.87,1.89c-0.49,0.56-1.05,0.77-1.8,0.76
		c-4.35-0.03-8.7-0.02-13.04-0.02c-1.15,0-2.29-0.01-3.44,0.01c-0.18,0-0.47,0.12-0.5,0.24C85.17,66.88,85.02,67.74,84.85,68.63z
		 M119.4,70.64c-12.27,0-24.46,0-36.68,0c0,0.97,0,1.9,0,2.83c12.25,0,24.46,0,36.68,0C119.4,72.5,119.4,71.58,119.4,70.64z"/>
	<path class="st0" d="M115.93,88.02c-0.16,3.58-0.32,7.07-0.48,10.64c-0.73,0-1.43,0-2.13,0c-1.17,0-2.34,0.02-3.5-0.01
		c-0.58-0.02-0.98,0.19-1.35,0.63c-1.96,2.32-4.48,3.51-7.51,3.48c-2.92-0.03-5.35-1.19-7.24-3.41c-0.42-0.49-0.85-0.71-1.5-0.7
		c-1.83,0.04-3.66,0.01-5.55,0.01c-0.16-3.56-0.32-7.07-0.48-10.64c0.32,0,0.57,0,0.83,0c1.67,0,3.34-0.01,5.01,0.01
		c0.51,0.01,0.89-0.15,1.19-0.57c3.85-5.34,11.75-5.4,15.67-0.03c0.32,0.43,0.7,0.6,1.23,0.6C112.03,88,113.94,88.02,115.93,88.02z"
		/>
	<path class="st2" d="M87.48,117.01c-0.24-5.46-0.49-10.91-0.73-16.42c1.37,0,2.68,0.06,3.98-0.02c0.99-0.06,1.68,0.23,2.41,0.95
		c4.58,4.45,11.93,4.2,16.36-0.49c0.31-0.32,0.6-0.45,1.04-0.45c1.58,0.02,3.17,0.01,4.83,0.01c-0.25,5.51-0.49,10.95-0.73,16.42
		C105.57,117.01,96.56,117.01,87.48,117.01z"/>
	<path class="st2" d="M116.48,75.48c-0.15,3.54-0.31,7.03-0.46,10.6c-1.24,0-2.45-0.08-3.64,0.02c-1.35,0.11-2.28-0.29-3.27-1.3
		c-4.72-4.79-12.71-4.32-16.97,0.9c-0.23,0.28-0.45,0.39-0.81,0.39c-1.71-0.02-3.42-0.01-5.22-0.01c-0.15-3.53-0.31-7.05-0.46-10.6
		C95.91,75.48,106.15,75.48,116.48,75.48z"/>
	<path class="st0" d="M84.85,68.63c0.17-0.89,0.33-1.76,0.53-2.61c0.03-0.12,0.33-0.24,0.5-0.24c1.15-0.02,2.29-0.01,3.44-0.01
		c4.35,0,8.7-0.02,13.04,0.02c0.75,0.01,1.3-0.21,1.8-0.76c0.59-0.66,1.23-1.27,1.87-1.89c0.13-0.13,0.33-0.26,0.5-0.26
		c3.06-0.02,6.12-0.01,9.23-0.01c0.48,1.92,0.96,3.82,1.44,5.77C106.41,68.63,95.65,68.63,84.85,68.63z"/>
	<path class="st0" d="M119.4,70.64c0,0.95,0,1.87,0,2.83c-12.21,0-24.43,0-36.68,0c0-0.93,0-1.86,0-2.83
		C94.94,70.64,107.13,70.64,119.4,70.64z"/>
</g>
<rect x="11" y="71.5" class="st4" width="68" height="37"/>
<text transform="matrix(1 0 0 1 11 102.3098)" class="st5 st6">Coff </text>
<rect x="129" y="73.09" class="st4" width="44" height="33.81"/>
<text transform="matrix(1 0 0 1 128.9999 105.2433)" class="st5 st7">Fe</text>
<path class="st8" d="M106.28,88.86c-1.19-0.64-3.44,1.22-5.03,4.16c-0.07,0.13-0.13,0.25-0.19,0.37c-0.07-0.13-0.14-0.26-0.21-0.39
	c-1.67-2.9-3.98-4.69-5.16-4.01c-1.18,0.68-0.77,3.58,0.9,6.47c1.2,2.07,2.72,3.58,3.92,4.02c0.01,0.01,0.02,0.01,0.03,0.02
	c0.2,0.11,0.42,0.14,0.67,0.11c0.16,0,0.31-0.04,0.45-0.1c1.2-0.42,2.74-2,3.91-4.17C107.15,92.4,107.47,89.5,106.28,88.86z"/>
</svg>
