<?xml version="1.0" encoding="utf-8"?>
<!-- Generator: Adobe Illustrator 24.1.1, SVG Export Plug-In . SVG Version: 6.00 Build 0)  -->
<svg version="1.1" id="Capa_1" xmlns="http://www.w3.org/2000/svg" xmlns:xlink="http://www.w3.org/1999/xlink" x="0px" y="0px"
	 viewBox="0 0 180 180" style="enable-background:new 0 0 180 180;" xml:space="preserve">
<style type="text/css">
	.st0{fill:#FFFACC;stroke:#000000;stroke-width:2;stroke-miterlimit:10;}
	.st1{fill:#FFFFFF;}
	.st2{fill:#13131A;}
	.st3{fill:#FFFACC;}
	.st4{fill:none;stroke:#000000;stroke-width:2;stroke-miterlimit:10;}
</style>
<circle class="st0" cx="90.5" cy="90.5" r="88"/>
<g>
	<path d="M50.75,57.12c-1.46,0-2.78,0.02-4.09,0c-1.7-0.03-2.5-0.83-2.51-2.53c-0.02-3.32-0.01-6.64,0-9.96
		c0.01-2.05,0.74-2.78,2.8-2.79c0.63,0,1.25,0,1.94,0c0.59-2.91,1.15-5.71,1.73-8.51c0.41-1.97,0.97-2.41,2.97-2.41
		c12.87,0,25.74-0.01,38.61,0.02c0.88,0,1.53-0.22,2.14-0.88c1.5-1.59,3.01-3.17,4.64-4.62c0.62-0.55,1.57-1.02,2.37-1.03
		c7.73-0.08,15.46-0.05,23.2-0.04c1.55,0,2.19,0.52,2.58,2.07c1.18,4.67,2.35,9.34,3.52,14.01c0.11,0.43,0.24,0.86,0.38,1.39
		c0.83,0,1.65-0.02,2.46,0.01c1.46,0.05,2.32,0.85,2.33,2.29c0.04,3.55,0.04,7.1,0,10.65c-0.01,1.51-0.87,2.31-2.42,2.34
		c-1.36,0.03-2.72,0.01-4.19,0.01c-0.13,2.73-0.28,5.36-0.39,7.99c-0.58,13.23-1.15,26.45-1.74,39.68
		c-0.71,16.09-1.44,32.18-2.17,48.27c-0.07,1.59-0.89,2.35-2.55,2.36c-5.09,0.02-10.19,0.01-15.28,0.01c-16.28,0-32.57,0-48.85,0
		c-2.54,0-3.1-0.57-3.22-3.09c-0.78-17.36-1.58-34.72-2.35-52.08c-0.59-13.32-1.16-26.63-1.74-39.95
		C50.9,59.29,50.82,58.29,50.75,57.12z M123.58,85.52c-4.51,0-8.82-0.03-13.13,0.02c-1.2,0.01-2.07-0.37-2.78-1.35
		c-8.84-12.13-26.69-11.99-35.38,0.06c-0.68,0.94-1.53,1.3-2.68,1.28c-3.77-0.04-7.55-0.02-11.32-0.02c-0.58,0-1.16,0-1.87,0
		c0.36,8.07,0.72,15.99,1.08,24.03c4.27,0,8.4,0.05,12.53-0.03c1.46-0.03,2.45,0.47,3.39,1.57c4.28,5.01,9.77,7.64,16.35,7.71
		c6.85,0.07,12.54-2.63,16.97-7.86c0.84-0.99,1.74-1.45,3.05-1.41c2.63,0.07,5.27,0.02,7.91,0.02c1.58,0,3.15,0,4.81,0
		C122.86,101.49,123.22,93.6,123.58,85.52z M59.34,150.99c20.49,0,40.84,0,61.32,0c0.55-12.34,1.1-24.64,1.65-37.07
		c-3.75,0-7.33,0.03-10.91-0.02c-0.99-0.02-1.65,0.27-2.34,1.01c-9.99,10.6-26.6,11.16-36.94,1.11c-1.66-1.61-3.22-2.26-5.45-2.14
		c-2.93,0.17-5.88,0.04-8.98,0.04C58.24,126.36,58.79,138.65,59.34,150.99z M124.81,57.22c-23.31,0-46.44,0-69.63,0
		c0.35,8.02,0.7,15.95,1.05,23.93c4.06,0,7.92-0.02,11.78,0.02c0.81,0.01,1.31-0.24,1.82-0.87c9.63-11.77,27.65-12.84,38.32-2.03
		c2.25,2.28,4.35,3.19,7.39,2.93c2.69-0.23,5.42-0.05,8.23-0.05C124.12,73.1,124.47,65.2,124.81,57.22z M53.39,41.75
		c24.4,0,48.68,0,73.09,0c-1.1-4.4-2.18-8.7-3.26-13.02c-7.04,0-13.94-0.01-20.85,0.03c-0.38,0-0.84,0.3-1.14,0.58
		c-1.44,1.39-2.9,2.76-4.23,4.26c-1.12,1.26-2.36,1.73-4.06,1.72c-9.82-0.07-19.63-0.04-29.45-0.04c-2.59,0-5.18-0.02-7.77,0.03
		c-0.4,0.01-1.07,0.28-1.13,0.55C54.13,37.79,53.78,39.75,53.39,41.75z M131.42,46.27c-27.7,0-55.24,0-82.82,0c0,2.18,0,4.29,0,6.38
		c27.66,0,55.23,0,82.82,0C131.42,50.49,131.42,48.41,131.42,46.27z"/>
	<path class="st1" d="M123.58,85.52c-0.36,8.08-0.72,15.97-1.08,24.03c-1.66,0-3.24,0-4.81,0c-2.64,0-5.28,0.05-7.91-0.02
		c-1.31-0.04-2.21,0.42-3.05,1.41c-4.43,5.23-10.12,7.93-16.97,7.86c-6.58-0.06-12.07-2.69-16.35-7.71c-0.94-1.1-1.93-1.6-3.39-1.57
		c-4.13,0.08-8.25,0.03-12.53,0.03c-0.36-8.04-0.72-15.96-1.08-24.03c0.72,0,1.29,0,1.87,0c3.77,0,7.55-0.03,11.32,0.02
		c1.15,0.01,2-0.35,2.68-1.28c8.69-12.05,26.54-12.19,35.38-0.06c0.71,0.98,1.58,1.36,2.78,1.35
		C114.76,85.49,119.08,85.52,123.58,85.52z"/>
	<path class="st2" d="M59.34,150.99c-0.55-12.34-1.1-24.62-1.65-37.07c3.1,0,6.05,0.13,8.98-0.04c2.23-0.13,3.79,0.52,5.45,2.14
		c10.34,10.05,26.95,9.49,36.94-1.11c0.69-0.73,1.36-1.02,2.34-1.01c3.58,0.05,7.16,0.02,10.91,0.02
		c-0.55,12.44-1.1,24.73-1.65,37.07C100.18,150.99,79.83,150.99,59.34,150.99z"/>
	<path class="st2" d="M124.81,57.22c-0.35,7.98-0.69,15.88-1.04,23.93c-2.8,0-5.53-0.18-8.23,0.05c-3.04,0.26-5.15-0.65-7.39-2.93
		c-10.67-10.81-28.69-9.74-38.32,2.03c-0.52,0.63-1.02,0.88-1.82,0.87c-3.86-0.04-7.73-0.02-11.78-0.02
		c-0.35-7.98-0.7-15.91-1.05-23.93C78.38,57.22,101.5,57.22,124.81,57.22z"/>
	<path class="st1" d="M53.39,41.75c0.39-2,0.74-3.97,1.21-5.9c0.06-0.27,0.74-0.54,1.13-0.55c2.59-0.05,5.18-0.03,7.77-0.03
		c9.82,0,19.64-0.04,29.45,0.04c1.7,0.01,2.94-0.47,4.06-1.72c1.33-1.49,2.79-2.87,4.23-4.26c0.3-0.29,0.75-0.58,1.14-0.58
		c6.91-0.03,13.81-0.03,20.85-0.03c1.08,4.33,2.16,8.62,3.26,13.02C102.07,41.75,77.79,41.75,53.39,41.75z"/>
	<path class="st1" d="M131.42,46.27c0,2.14,0,4.21,0,6.38c-27.58,0-55.15,0-82.82,0c0-2.1,0-4.2,0-6.38
		C76.18,46.27,103.72,46.27,131.42,46.27z"/>
</g>
<path class="st4" d="M101.91,87.42c-2.69-1.45-7.77,2.75-11.36,9.39c-0.15,0.28-0.29,0.56-0.43,0.85c-0.16-0.29-0.31-0.58-0.48-0.87
	c-3.77-6.54-8.99-10.6-11.64-9.06s-1.75,8.08,2.03,14.61c2.7,4.68,6.14,8.07,8.85,9.07c0.02,0.01,0.04,0.03,0.06,0.05
	c0.44,0.24,0.95,0.31,1.51,0.26c0.37-0.01,0.7-0.08,1.01-0.22c2.72-0.94,6.19-4.51,8.84-9.42C103.87,95.43,104.6,88.87,101.91,87.42
	z"/>
</svg>
